<?xml version="1.0" encoding="UTF-8" standalone="no"?>
<!DOCTYPE svg PUBLIC "-//W3C//DTD SVG 1.1//EN"
 "http://www.w3.org/Graphics/SVG/1.1/DTD/svg11.dtd">
<!-- Generated by graphviz version 2.38.0 (20140413.2041)
 -->
<!-- Title: Tree Pages: 1 -->
<svg width="363pt" height="314pt"
 viewBox="0.00 0.00 363.00 314.00" xmlns="http://www.w3.org/2000/svg" xmlns:xlink="http://www.w3.org/1999/xlink">
<g id="graph0" class="graph" transform="scale(1 1) rotate(0) translate(4 310)">
<title>Tree</title>
<polygon fill="white" stroke="none" points="-4,4 -4,-310 359,-310 359,4 -4,4"/>
<!-- 0 -->
<g id="node1" class="node"><title>0</title>
<path fill="none" stroke="black" d="M216.5,-306C216.5,-306 66.5,-306 66.5,-306 60.5,-306 54.5,-300 54.5,-294 54.5,-294 54.5,-235 54.5,-235 54.5,-229 60.5,-223 66.5,-223 66.5,-223 216.5,-223 216.5,-223 222.5,-223 228.5,-229 228.5,-235 228.5,-235 228.5,-294 228.5,-294 228.5,-300 222.5,-306 216.5,-306"/>
<text text-anchor="middle" x="141.5" y="-290.8" font-family="Helvetica,sans-Serif" font-size="14.00">petal length (cm) &lt;= 2.45</text>
<text text-anchor="middle" x="141.5" y="-275.8" font-family="Helvetica,sans-Serif" font-size="14.00">gini = 0.667</text>
<text text-anchor="middle" x="141.5" y="-260.8" font-family="Helvetica,sans-Serif" font-size="14.00">samples = 150</text>
<text text-anchor="middle" x="141.5" y="-245.8" font-family="Helvetica,sans-Serif" font-size="14.00">value = [50, 50, 50]</text>
<text text-anchor="middle" x="141.5" y="-230.8" font-family="Helvetica,sans-Serif" font-size="14.00">class = setosa</text>
</g>
<!-- 1 -->
<g id="node2" class="node"><title>1</title>
<path fill="#e58139" stroke="black" d="M109,-179.5C109,-179.5 12,-179.5 12,-179.5 6,-179.5 0,-173.5 0,-167.5 0,-167.5 0,-123.5 0,-123.5 0,-117.5 6,-111.5 12,-111.5 12,-111.5 109,-111.5 109,-111.5 115,-111.5 121,-117.5 121,-123.5 121,-123.5 121,-167.5 121,-167.5 121,-173.5 115,-179.5 109,-179.5"/>
<text text-anchor="middle" x="60.5" y="-164.3" font-family="Helvetica,sans-Serif" font-size="14.00">gini = 0.0</text>
<text text-anchor="middle" x="60.5" y="-149.3" font-family="Helvetica,sans-Serif" font-size="14.00">samples = 50</text>
<text text-anchor="middle" x="60.5" y="-134.3" font-family="Helvetica,sans-Serif" font-size="14.00">value = [50, 0, 0]</text>
<text text-anchor="middle" x="60.5" y="-119.3" font-family="Helvetica,sans-Serif" font-size="14.00">class = setosa</text>
</g>
<!-- 0&#45;&gt;1 -->
<g id="edge1" class="edge"><title>0&#45;&gt;1</title>
<path fill="none" stroke="black" d="M113.397,-222.907C105.605,-211.652 97.1358,-199.418 89.3043,-188.106"/>
<polygon fill="black" stroke="black" points="92.0315,-185.897 83.4617,-179.667 86.2762,-189.881 92.0315,-185.897"/>
<text text-anchor="middle" x="78.9896" y="-200.564" font-family="Helvetica,sans-Serif" font-size="14.00">True</text>
</g>
<!-- 2 -->
<g id="node3" class="node"><title>2</title>
<path fill="none" stroke="black" d="M295.5,-187C295.5,-187 151.5,-187 151.5,-187 145.5,-187 139.5,-181 139.5,-175 139.5,-175 139.5,-116 139.5,-116 139.5,-110 145.5,-104 151.5,-104 151.5,-104 295.5,-104 295.5,-104 301.5,-104 307.5,-110 307.5,-116 307.5,-116 307.5,-175 307.5,-175 307.5,-181 301.5,-187 295.5,-187"/>
<text text-anchor="middle" x="223.5" y="-171.8" font-family="Helvetica,sans-Serif" font-size="14.00">petal width (cm) &lt;= 1.75</text>
<text text-anchor="middle" x="223.5" y="-156.8" font-family="Helvetica,sans-Serif" font-size="14.00">gini = 0.5</text>
<text text-anchor="middle" x="223.5" y="-141.8" font-family="Helvetica,sans-Serif" font-size="14.00">samples = 100</text>
<text text-anchor="middle" x="223.5" y="-126.8" font-family="Helvetica,sans-Serif" font-size="14.00">value = [0, 50, 50]</text>
<text text-anchor="middle" x="223.5" y="-111.8" font-family="Helvetica,sans-Serif" font-size="14.00">class = versicolor</text>
</g>
<!-- 0&#45;&gt;2 -->
<g id="edge2" class="edge"><title>0&#45;&gt;2</title>
<path fill="none" stroke="black" d="M169.949,-222.907C176.183,-214.014 182.844,-204.509 189.277,-195.331"/>
<polygon fill="black" stroke="black" points="192.228,-197.219 195.101,-187.021 186.495,-193.201 192.228,-197.219"/>
<text text-anchor="middle" x="199.431" y="-207.943" font-family="Helvetica,sans-Serif" font-size="14.00">False</text>
</g>
<!-- 3 -->
<g id="node4" class="node"><title>3</title>
<path fill="#39e581" fill-opacity="0.898039" stroke="black" d="M204,-68C204,-68 101,-68 101,-68 95,-68 89,-62 89,-56 89,-56 89,-12 89,-12 89,-6 95,-0 101,-0 101,-0 204,-0 204,-0 210,-0 216,-6 216,-12 216,-12 216,-56 216,-56 216,-62 210,-68 204,-68"/>
<text text-anchor="middle" x="152.5" y="-52.8" font-family="Helvetica,sans-Serif" font-size="14.00">gini = 0.168</text>
<text text-anchor="middle" x="152.5" y="-37.8" font-family="Helvetica,sans-Serif" font-size="14.00">samples = 54</text>
<text text-anchor="middle" x="152.5" y="-22.8" font-family="Helvetica,sans-Serif" font-size="14.00">value = [0, 49, 5]</text>
<text text-anchor="middle" x="152.5" y="-7.8" font-family="Helvetica,sans-Serif" font-size="14.00">class = versicolor</text>
</g>
<!-- 2&#45;&gt;3 -->
<g id="edge3" class="edge"><title>2&#45;&gt;3</title>
<path fill="none" stroke="black" d="M197.062,-103.726C191.385,-94.9703 185.376,-85.7032 179.671,-76.9051"/>
<polygon fill="black" stroke="black" points="182.469,-74.786 174.092,-68.2996 176.595,-78.5943 182.469,-74.786"/>
</g>
<!-- 4 -->
<g id="node5" class="node"><title>4</title>
<path fill="#8139e5" fill-opacity="0.976471" stroke="black" d="M343,-68C343,-68 246,-68 246,-68 240,-68 234,-62 234,-56 234,-56 234,-12 234,-12 234,-6 240,-0 246,-0 246,-0 343,-0 343,-0 349,-0 355,-6 355,-12 355,-12 355,-56 355,-56 355,-62 349,-68 343,-68"/>
<text text-anchor="middle" x="294.5" y="-52.8" font-family="Helvetica,sans-Serif" font-size="14.00">gini = 0.043</text>
<text text-anchor="middle" x="294.5" y="-37.8" font-family="Helvetica,sans-Serif" font-size="14.00">samples = 46</text>
<text text-anchor="middle" x="294.5" y="-22.8" font-family="Helvetica,sans-Serif" font-size="14.00">value = [0, 1, 45]</text>
<text text-anchor="middle" x="294.5" y="-7.8" font-family="Helvetica,sans-Serif" font-size="14.00">class = virginica</text>
</g>
<!-- 2&#45;&gt;4 -->
<g id="edge4" class="edge"><title>2&#45;&gt;4</title>
<path fill="none" stroke="black" d="M249.938,-103.726C255.615,-94.9703 261.624,-85.7032 267.329,-76.9051"/>
<polygon fill="black" stroke="black" points="270.405,-78.5943 272.908,-68.2996 264.531,-74.786 270.405,-78.5943"/>
</g>
</g>
</svg>
